<?xml version="1.0" encoding="iso-8859-1"?>
<!-- Generator: Adobe Illustrator 16.0.0, SVG Export Plug-In . SVG Version: 6.00 Build 0)  -->
<!DOCTYPE svg PUBLIC "-//W3C//DTD SVG 1.1//EN" "http://www.w3.org/Graphics/SVG/1.1/DTD/svg11.dtd">
<svg version="1.1" id="Capa_1" xmlns="http://www.w3.org/2000/svg" xmlns:xlink="http://www.w3.org/1999/xlink" x="0px" y="0px"
	 width="936.091px" height="936.091px" viewBox="0 0 936.091 936.091" style="enable-background:new 0 0 936.091 936.091"
	 xml:space="preserve">
<g>
	<path d="M562.292,715.212l-41.747,42.25V178.628l41.747,42.25c20.379,20.625,53.62,20.825,74.245,0.445
		c20.625-20.379,20.824-53.619,0.445-74.244L507.071,15.601c-20.379-20.626-53.62-20.825-74.245-0.445L299.554,146.837
		c-20.625,20.379-20.824,53.619-0.445,74.244c10.271,10.395,23.806,15.601,37.348,15.601c13.33,0,26.667-5.046,36.897-15.155
		l42.192-41.688v576.414l-42.192-41.688c-20.625-20.381-53.865-20.182-74.245,0.445c-20.379,20.625-20.18,53.865,0.445,74.244
		l133.272,131.682c9.83,9.713,23.089,15.154,36.898,15.154c0.104,0,0.211,0,0.315,0c13.923-0.084,27.244-5.695,37.03-15.602
		l129.911-131.479c20.38-20.625,20.181-53.865-0.444-74.244C615.912,694.386,582.67,694.585,562.292,715.212z"/>
</g>
</svg>
